<svg preserveAspectRatio="none" overflow="visible" style="display: block;" width="40" height="40" viewBox="0 0 40 40" fill="none" xmlns="http://www.w3.org/2000/svg">
<g id="Figma logo">
<path id="Vector" d="M13.3384 39.9999C15.1065 39.9999 16.8022 39.2975 18.0525 38.0473C19.3027 36.797 20.0051 35.1013 20.0051 33.3332V26.6666H13.3384C11.5703 26.6666 9.87462 27.3689 8.62437 28.6192C7.37413 29.8694 6.67175 31.5651 6.67175 33.3332C6.67175 35.1013 7.37413 36.797 8.62437 38.0473C9.87462 39.2975 11.5703 39.9999 13.3384 39.9999Z" fill="#0ACF83"/>
<path id="Vector_2" d="M6.67175 20.0001C6.67175 18.232 7.37413 16.5363 8.62437 15.2861C9.87462 14.0358 11.5703 13.3334 13.3384 13.3334H20.0051V26.6668H13.3384C11.5703 26.6668 9.87462 25.9644 8.62437 24.7141C7.37413 23.4639 6.67175 21.7682 6.67175 20.0001Z" fill="#A259FF"/>
<path id="Vector_3" d="M6.67175 6.66667C6.67175 4.89946 7.37342 3.20455 8.62253 1.95446C9.87165 0.704369 11.566 0.00138063 13.3332 0L19.9999 0V13.3333H13.3384C11.5703 13.3333 9.87462 12.631 8.62437 11.3807C7.37413 10.1305 6.67175 8.43478 6.67175 6.66667Z" fill="#F24E1E"/>
<path id="Vector_4" d="M20.0052 0H26.6719C28.44 0 30.1357 0.702379 31.3859 1.95262C32.6361 3.20286 33.3385 4.89856 33.3385 6.66667C33.3385 8.43478 32.6361 10.1305 31.3859 11.3807C30.1357 12.631 28.44 13.3333 26.6719 13.3333H20.0052V0Z" fill="#FF7262"/>
<path id="Vector_5" d="M33.3385 20.0001C33.3385 21.7682 32.6361 23.4639 31.3859 24.7141C30.1357 25.9644 28.44 26.6668 26.6719 26.6668C24.9037 26.6668 23.2081 25.9644 21.9578 24.7141C20.7076 23.4639 20.0052 21.7682 20.0052 20.0001C20.0052 18.232 20.7076 16.5363 21.9578 15.2861C23.2081 14.0358 24.9037 13.3334 26.6719 13.3334C28.44 13.3334 30.1357 14.0358 31.3859 15.2861C32.6361 16.5363 33.3385 18.232 33.3385 20.0001Z" fill="#1ABCFE"/>
</g>
</svg>
