<svg preserveAspectRatio="none" overflow="visible" style="display: block;" width="153.083" height="44" viewBox="0 0 153.083 44" fill="none" xmlns="http://www.w3.org/2000/svg">
<g id="Fictional company logo">
<g id="Logomark">
<path id="Shape" fill-rule="evenodd" clip-rule="evenodd" d="M18.1184 3.16058C17.6554 3.06536 17.1779 3.06536 16.715 3.16058C16.1798 3.27064 15.7015 3.53855 15.3212 3.75153L15.2176 3.80944L2.32974 10.9694C2.29411 10.9892 2.25739 11.0094 2.21977 11.0301C1.81723 11.2518 1.3111 11.5306 0.922413 11.9524C0.586368 12.317 0.332059 12.7492 0.176491 13.2201C-0.00344653 13.7647 -0.00134131 14.3425 0.000332895 14.8021C0.000489399 14.845 0.000642053 14.8869 0.000642053 14.9277V29.0645C0.000642053 29.1052 0.000489399 29.1471 0.000332895 29.1901C-0.00134131 29.6496 -0.00344653 30.2275 0.176491 30.7721C0.33206 31.2429 0.586371 31.6751 0.922414 32.0398C1.3111 32.4616 1.81723 32.7403 2.21977 32.9621C2.25739 32.9828 2.29411 33.003 2.32974 33.0228L15.2176 40.1827L15.3213 40.2406C15.7015 40.4536 16.1798 40.7215 16.715 40.8316C17.1779 40.9268 17.6554 40.9268 18.1184 40.8316C18.6535 40.7215 19.1318 40.4536 19.5121 40.2406L19.6157 40.1827L32.5036 33.0228C32.5194 33.014 32.5353 33.0052 32.5515 32.9963C32.5719 32.985 32.5926 32.9736 32.6136 32.9621C33.0161 32.7403 33.5222 32.4616 33.9109 32.0398C34.247 31.6751 34.5013 31.2429 34.6568 30.7721C34.8368 30.2275 34.8347 29.6496 34.833 29.1901C34.8328 29.1471 34.8327 29.1052 34.8327 29.0645V14.9277C34.8327 14.8869 34.8328 14.845 34.833 14.8021C34.8347 14.3425 34.8368 13.7647 34.6568 13.2201C34.5013 12.7492 34.247 12.317 33.9109 11.9524C33.5222 11.5306 33.0161 11.2518 32.6136 11.0301L32.6121 11.0293C32.575 11.0089 32.5388 10.9889 32.5036 10.9694L19.6157 3.80944L19.5121 3.75153C19.1318 3.53854 18.6535 3.27064 18.1184 3.16058ZM16.9092 6.8543C17.1731 6.70768 17.3078 6.63359 17.4083 6.58512L17.4167 6.58113L17.425 6.58512C17.5255 6.63359 17.6602 6.70768 17.9241 6.8543L29.5048 13.288L17.4166 20.0037L5.32844 13.2881L16.9092 6.8543ZM3.48385 16.2479L15.675 23.0208L15.6751 36.4522L4.02133 29.9779C3.74276 29.8232 3.60053 29.7433 3.50074 29.6797L3.49232 29.6743L3.49169 29.6643C3.48457 29.5462 3.48385 29.3831 3.48385 29.0645V16.2479Z" fill="#101828"/>
</g>
<g id="Logotype">
<path d="M50.6835 27.8165H56.2275V31.0835H46.4512V13.709H50.6835V27.8165Z" fill="#101828"/>
<path d="M60.1272 15.8375C59.3847 15.8375 58.7742 15.623 58.2957 15.194C57.8337 14.7485 57.6027 14.204 57.6027 13.5605C57.6027 12.9005 57.8337 12.356 58.2957 11.927C58.7742 11.4815 59.3847 11.2587 60.1272 11.2587C60.8532 11.2587 61.4472 11.4815 61.9092 11.927C62.3877 12.356 62.6269 12.9005 62.6269 13.5605C62.6269 14.204 62.3877 14.7485 61.9092 15.194C61.4472 15.623 60.8532 15.8375 60.1272 15.8375ZM62.2309 17.273V31.0835H57.9987V17.273H62.2309Z" fill="#101828"/>
<path d="M70.2975 17.075C71.271 17.075 72.1207 17.273 72.8467 17.669C73.5892 18.065 74.1585 18.5847 74.5545 19.2282V17.273H78.7867V31.0587C78.7867 32.3292 78.531 33.476 78.0195 34.499C77.5245 35.5385 76.7572 36.3635 75.7177 36.974C74.6947 37.5845 73.416 37.8897 71.8815 37.8897C69.8355 37.8897 68.1772 37.403 66.9067 36.4295C65.6362 35.4725 64.9102 34.169 64.7287 32.519H68.9115C69.0435 33.047 69.357 33.4595 69.852 33.7565C70.347 34.07 70.9575 34.2267 71.6835 34.2267C72.558 34.2267 73.251 33.971 73.7625 33.4595C74.2905 32.9645 74.5545 32.1642 74.5545 31.0587V29.1035C74.142 29.747 73.5727 30.275 72.8467 30.6875C72.1207 31.0835 71.271 31.2815 70.2975 31.2815C69.159 31.2815 68.1277 30.9927 67.2037 30.4152C66.2797 29.8212 65.5455 28.988 65.001 27.9155C64.473 26.8265 64.209 25.5725 64.209 24.1535C64.209 22.7345 64.473 21.4887 65.001 20.4162C65.5455 19.3437 66.2797 18.5187 67.2037 17.9412C68.1277 17.3637 69.159 17.075 70.2975 17.075ZM74.5545 24.1782C74.5545 23.1222 74.2575 22.289 73.6635 21.6785C73.086 21.068 72.3765 20.7627 71.535 20.7627C70.6935 20.7627 69.9757 21.068 69.3817 21.6785C68.8042 22.2725 68.5155 23.0975 68.5155 24.1535C68.5155 25.2095 68.8042 26.051 69.3817 26.678C69.9757 27.2885 70.6935 27.5937 71.535 27.5937C72.3765 27.5937 73.086 27.2885 73.6635 26.678C74.2575 26.0675 74.5545 25.2342 74.5545 24.1782Z" fill="#101828"/>
<path d="M90.0903 17.1245C91.6743 17.1245 92.9448 17.6525 93.9018 18.7085C94.8588 19.748 95.3373 21.1835 95.3373 23.015V31.0835H91.1298V23.5842C91.1298 22.6602 90.8906 21.9425 90.4121 21.431C89.9336 20.9195 89.2901 20.6637 88.4816 20.6637C87.6731 20.6637 87.0296 20.9195 86.5511 21.431C86.0726 21.9425 85.8333 22.6602 85.8333 23.5842V31.0835H81.6011V12.7685H85.8333V19.1292C86.2623 18.5187 86.8481 18.032 87.5906 17.669C88.3331 17.306 89.1663 17.1245 90.0903 17.1245Z" fill="#101828"/>
<path d="M105.728 27.4947V31.0835H103.575C102.04 31.0835 100.844 30.7122 99.9861 29.9697C99.1281 29.2107 98.6991 27.9815 98.6991 26.282V20.7875H97.0161V17.273H98.6991V13.907H102.931V17.273H105.703V20.7875H102.931V26.3315C102.931 26.744 103.03 27.041 103.228 27.2225C103.426 27.404 103.756 27.4947 104.218 27.4947H105.728Z" fill="#101828"/>
<path d="M112.07 19.2282C112.466 18.5847 113.035 18.065 113.778 17.669C114.52 17.273 115.37 17.075 116.327 17.075C117.466 17.075 118.497 17.3637 119.421 17.9412C120.345 18.5187 121.071 19.3437 121.599 20.4162C122.143 21.4887 122.416 22.7345 122.416 24.1535C122.416 25.5725 122.143 26.8265 121.599 27.9155C121.071 28.988 120.345 29.8212 119.421 30.4152C118.497 30.9927 117.466 31.2815 116.327 31.2815C115.354 31.2815 114.504 31.0917 113.778 30.7122C113.052 30.3162 112.483 29.7965 112.07 29.153V31.0835H107.838V12.7685H112.07V19.2282ZM118.109 24.1535C118.109 23.0975 117.812 22.2725 117.218 21.6785C116.641 21.068 115.923 20.7627 115.065 20.7627C114.223 20.7627 113.506 21.068 112.912 21.6785C112.334 22.289 112.045 23.1222 112.045 24.1782C112.045 25.2342 112.334 26.0675 112.912 26.678C113.506 27.2885 114.223 27.5937 115.065 27.5937C115.906 27.5937 116.624 27.2885 117.218 26.678C117.812 26.051 118.109 25.2095 118.109 24.1535Z" fill="#101828"/>
<path d="M130.675 31.2815C129.322 31.2815 128.101 30.9927 127.012 30.4152C125.94 29.8377 125.09 29.0127 124.463 27.9402C123.852 26.8677 123.547 25.6137 123.547 24.1782C123.547 22.7592 123.861 21.5135 124.488 20.441C125.115 19.352 125.973 18.5187 127.062 17.9412C128.151 17.3637 129.372 17.075 130.725 17.075C132.078 17.075 133.299 17.3637 134.388 17.9412C135.477 18.5187 136.335 19.352 136.962 20.441C137.589 21.5135 137.902 22.7592 137.902 24.1782C137.902 25.5972 137.58 26.8512 136.937 27.9402C136.31 29.0127 135.444 29.8377 134.338 30.4152C133.249 30.9927 132.028 31.2815 130.675 31.2815ZM130.675 27.6185C131.484 27.6185 132.168 27.3215 132.729 26.7275C133.307 26.1335 133.596 25.2837 133.596 24.1782C133.596 23.0727 133.315 22.223 132.754 21.629C132.21 21.035 131.533 20.738 130.725 20.738C129.9 20.738 129.215 21.035 128.67 21.629C128.126 22.2065 127.854 23.0562 127.854 24.1782C127.854 25.2837 128.118 26.1335 128.646 26.7275C129.19 27.3215 129.867 27.6185 130.675 27.6185Z" fill="#101828"/>
<path d="M148.067 31.0835L145.419 27.2472L143.192 31.0835H138.613L143.167 24.0297L138.489 17.273H143.241L145.889 21.0845L148.117 17.273H152.696L148.067 24.2277L152.819 31.0835H148.067Z" fill="#101828"/>
</g>
</g>
</svg>
